# xmcd
#
# Track frame offsets:
#	150
#	14332
#	38874
#	53006
#	70286
#	84406
#	105225
#	126528
#	141248
#	160304
#	180379
#	197490
#
# Disc length: 2889 seconds
#
# Revision: 1
# Processed by: cddbd v1.5.1PL0 Copyright (c) Steve Scherf et al.
# Submitted via: audiograbber 1.83.01
#
DISCID=9c0b470c
DTITLE=Robbie Bartlett - A Night with Robbie Bartlett
DYEAR=2002
DGENRE=R&B
TTITLE0=Something's Got A Hold On Me
TTITLE1=Don't Do Me No Wrong
TTITLE2=Do You Want To Dance
TTITLE3=Let's Stay Together
TTITLE4=At Last
TTITLE5=Give Me One Reason
TTITLE6=Superstition
TTITLE7=Pride And Joy
TTITLE8=God Bless The Child
TTITLE9=Respect
TTITLE10=Change Is Coming
TTITLE11=Chain Of Fools
EXTD=
EXTT0=
EXTT1=
EXTT2=
EXTT3=
EXTT4=
EXTT5=
EXTT6=
EXTT7=
EXTT8=
EXTT9=
EXTT10=
EXTT11=
PLAYORDER=
